<?xml version="1.0" encoding="utf-8"?>
<!-- Generator: Adobe Illustrator 22.0.0, SVG Export Plug-In . SVG Version: 6.00 Build 0)  -->
<svg version="1.1" id="Layer_1" xmlns="http://www.w3.org/2000/svg" xmlns:xlink="http://www.w3.org/1999/xlink" x="0px" y="0px"
	 viewBox="0 0 1200 1200" style="enable-background:new 0 0 1200 1200;" xml:space="preserve">
<style type="text/css">
	.st0{fill:#232323;}
	.st1{font-family:'Montserrat-Bold';}
	.st2{font-size:116px;}
	.st3{fill:#64B900;}
</style>
<text transform="matrix(1 0 0 1 282.6063 599.9998)"><tspan x="0" y="0" class="st0 st1 st2">Plant</tspan><tspan x="0" y="116" class="st0 st1 st2">Genetix</tspan></text>
<path id="leaf_1_" class="st3" d="M856.4,491.7c1.2-0.6,2.4-1.2,3.6-2.1c1.5-0.9,3.3-1.5,4.8-2.4c1.8-0.9,3.3-1.5,5.1-2.4
	c7.2-3,14.7-5.4,22.5-7.8c15.6-4.5,31.5-7.5,43.5-9.3c5.1-0.6,9.6-1.2,12.9-1.8c-2.7,0.3-6,0.9-9.6,1.5c-12,2.1-27.9,5.4-43.5,9.9
	c-7.8,2.4-15.3,5.1-22.5,8.1c-1.8,0.9-3.6,1.5-5.1,2.4c-1.8,0.9-3.3,1.5-4.8,2.4c-1.5,0.9-3,1.8-4.5,2.4c-1.5,0.9-2.7,1.8-4.2,2.4
	c-1.2,0.9-2.4,1.8-3.6,2.4c-1.2,0.9-2.4,1.5-3.3,2.4c-0.6,0.3-0.9,0.9-1.5,1.2c0.9-3,1.8-6.3,2.7-9.3c5.7-18.9,12.6-36.3,19.8-50.4
	c1.8-3.6,3.6-6.9,5.4-9.9c1.8-3.3,3.6-6,5.4-8.7c3.3-5.4,6.9-9.9,9.6-13.5s5.4-6.3,6.9-8.1c1.8-1.8,2.4-3,2.4-3s-0.9,0.9-2.7,2.7
	c-1.8,1.8-4.5,4.2-7.5,7.8s-6.6,7.8-10.5,13.2c-1.8,2.7-3.9,5.4-5.7,8.4c-1.8,3-4.2,6.3-6,9.9c-8.1,13.8-15.9,30.9-22.5,49.8
	c-3.3,9.3-6.6,19.2-9.3,29.4c-3,10.2-5.4,20.7-7.8,30.9c-2.7,12.9-5.1,25.8-7.2,38.7c-0.9-2.1-2.4-4.2-3.6-6.6s-2.7-4.8-4.5-7.5
	c-1.5-2.7-3.3-5.1-5.1-7.8s-3.9-5.4-6-8.1s-4.2-5.4-6.6-8.1s-4.8-5.4-7.2-8.4c-9.9-11.1-21.3-22.2-33-32.7
	c-23.7-21-49.2-39.6-68.7-52.8c-6-3.9-11.1-7.5-15.9-10.5c5.7,3.3,12.9,7.8,21.3,13.2c19.8,12.9,45.6,30.9,69.9,51.6
	c12,10.2,23.7,21,33.9,32.1c2.4,2.7,5.1,5.4,7.2,8.1c2.4,2.7,4.5,5.4,6.6,8.1c1.8,2.1,3.3,4.2,4.8,6.3
	C859.4,437.9,639.5,428,639.5,428s10.5,15,20.7,41.7c22.5,59.1,43.8,159.6,144,109.8c1.2,2.1,2.7,4.5,3.6,6.6
	c1.2,2.4,2.4,4.5,3.3,6.6c0.9,2.1,1.8,4.2,2.7,6c0.6,1.8,1.2,3.6,1.8,5.1c0.6,1.2,0.9,2.4,1.2,3.6c-2.7,21.6-4.5,42-5.7,59.1
	c-0.9,15.9-1.5,29.4-1.5,39c0,9.3,0,15,0,15l17.7-0.6c0,0-0.3-5.1-0.6-14.4s-0.6-22.5-0.6-38.1c0.3-31.5,2.4-73.8,9.3-115.5
	c1.8-10.5,3.6-20.7,6-30.9c0.9-3.6,1.8-6.9,2.4-10.5c0,0,0,0,0-0.3c0.6-0.6,1.2-1.8,2.4-3c0.6-0.6,1.2-1.2,1.8-2.1
	c0.9-0.6,1.5-1.5,2.4-2.1c0.9-0.9,1.8-1.5,3-2.4c0.9-0.9,2.1-1.5,3-2.4c36,44.7,67.5,2.4,90.6-20.7c10.5-10.5,18.6-15,18.6-15
	S861.8,421.7,856.4,491.7z M656.9,440.6c0,0,0.9,0.3,2.1,1.2c0.9,0.6,1.8,1.2,2.7,1.8C658.7,441.8,656.9,440.6,656.9,440.6z
	 M955.4,465.9c0.9,0,1.2,0,1.2,0s-0.9,0-2.7,0.3C954.2,465.9,954.8,465.9,955.4,465.9z"/>
</svg>
