<?xml version="1.0" encoding="utf-8"?>
<!-- Generator: Adobe Illustrator 22.0.0, SVG Export Plug-In . SVG Version: 6.00 Build 0)  -->
<svg version="1.1" id="Layer_1" xmlns="http://www.w3.org/2000/svg" xmlns:xlink="http://www.w3.org/1999/xlink" x="0px" y="0px"
	 viewBox="0 0 300 222.7" style="enable-background:new 0 0 300 222.7;" xml:space="preserve">
<style type="text/css">
	.st0{fill:#64B900;}
	.st1{fill:#333333;}
</style>
<path id="leaf" class="st0" d="M228.2,65.9c0.4-0.2,0.8-0.4,1.2-0.7c0.5-0.3,1.1-0.5,1.6-0.8c0.6-0.3,1.1-0.5,1.7-0.8
	c2.4-1,4.9-1.8,7.5-2.6c5.2-1.5,10.5-2.5,14.5-3.1c1.7-0.2,3.2-0.4,4.3-0.6c-0.9,0.1-2,0.3-3.2,0.5c-4,0.7-9.3,1.8-14.5,3.3
	c-2.6,0.8-5.1,1.7-7.5,2.7c-0.6,0.3-1.2,0.5-1.7,0.8c-0.6,0.3-1.1,0.5-1.6,0.8c-0.5,0.3-1,0.6-1.5,0.8c-0.5,0.3-0.9,0.6-1.4,0.8
	c-0.4,0.3-0.8,0.6-1.2,0.8c-0.4,0.3-0.8,0.5-1.1,0.8c-0.2,0.1-0.3,0.3-0.5,0.4c0.3-1,0.6-2.1,0.9-3.1c1.9-6.3,4.2-12.1,6.6-16.8
	c0.6-1.2,1.2-2.3,1.8-3.3c0.6-1.1,1.2-2,1.8-2.9c1.1-1.8,2.3-3.3,3.2-4.5c0.9-1.2,1.8-2.1,2.3-2.7c0.6-0.6,0.8-1,0.8-1
	s-0.3,0.3-0.9,0.9c-0.6,0.6-1.5,1.4-2.5,2.6c-1,1.2-2.2,2.6-3.5,4.4c-0.6,0.9-1.3,1.8-1.9,2.8c-0.6,1-1.4,2.1-2,3.3
	c-2.7,4.6-5.3,10.3-7.5,16.6c-1.1,3.1-2.2,6.4-3.1,9.8c-1,3.4-1.8,6.9-2.6,10.3c-0.9,4.3-1.7,8.6-2.4,12.9c-0.3-0.7-0.8-1.4-1.2-2.2
	c-0.4-0.8-0.9-1.6-1.5-2.5c-0.5-0.9-1.1-1.7-1.7-2.6c-0.6-0.9-1.3-1.8-2-2.7c-0.7-0.9-1.4-1.8-2.2-2.7c-0.8-0.9-1.6-1.8-2.4-2.8
	c-3.3-3.7-7.1-7.4-11-10.9c-7.9-7-16.4-13.2-22.9-17.6c-2-1.3-3.7-2.5-5.3-3.5c1.9,1.1,4.3,2.6,7.1,4.4c6.6,4.3,15.2,10.3,23.3,17.2
	c4,3.4,7.9,7,11.3,10.7c0.8,0.9,1.7,1.8,2.4,2.7c0.8,0.9,1.5,1.8,2.2,2.7c0.6,0.7,1.1,1.4,1.6,2.1c15.7-42.6-57.6-45.9-57.6-45.9
	s3.5,5,6.9,13.9c7.5,19.7,14.6,53.2,48,36.6c0.4,0.7,0.9,1.5,1.2,2.2c0.4,0.8,0.8,1.5,1.1,2.2c0.3,0.7,0.6,1.4,0.9,2
	c0.2,0.6,0.4,1.2,0.6,1.7c0.2,0.4,0.3,0.8,0.4,1.2c-0.9,7.2-1.5,14-1.9,19.7c-0.3,5.3-0.5,9.8-0.5,13c0,3.1,0,5,0,5l5.9-0.2
	c0,0-0.1-1.7-0.2-4.8c-0.1-3.1-0.2-7.5-0.2-12.7c0.1-10.5,0.8-24.6,3.1-38.5c0.6-3.5,1.2-6.9,2-10.3c0.3-1.2,0.6-2.3,0.8-3.5
	c0,0,0,0,0-0.1c0.2-0.2,0.4-0.6,0.8-1c0.2-0.2,0.4-0.4,0.6-0.7c0.3-0.2,0.5-0.5,0.8-0.7c0.3-0.3,0.6-0.5,1-0.8
	c0.3-0.3,0.7-0.5,1-0.8c12,14.9,22.5,0.8,30.2-6.9c3.5-3.5,6.2-5,6.2-5S230,42.6,228.2,65.9z M161.7,48.9c0,0,0.3,0.1,0.7,0.4
	c0.3,0.2,0.6,0.4,0.9,0.6C162.3,49.3,161.7,48.9,161.7,48.9z M261.2,57.3c0.3,0,0.4,0,0.4,0s-0.3,0-0.9,0.1
	C260.8,57.3,261,57.3,261.2,57.3z"/>
<g id="lubanga">
	<path class="st1" d="M63.2,172.6v14H38.6v-8.1h3V164h-3v-7.7h14.4v7.7h-3.1v14.4h5.8v-5.9H63.2z"/>
	<path class="st1" d="M91.4,156.3v7.7h-3v14.5l0,2.3l-0.4,2.3c-1,2.6-4.2,4-9.6,4c-6.8,0-10.2-2.2-10.2-6.6v-2.3V164h-2.9v-7.7h13.3
		v7.7h-2v10.2c0,2.8,0.9,4.2,2.6,4.2c1.9,0,2.9-1.5,2.9-4.4V164h-1.9v-7.7H91.4z"/>
	<path class="st1" d="M94.3,156.3h11.3c5.6,0,9.3,0.5,11,1.5s2.6,3.2,2.6,6.4c0,2.4-0.5,4-1.4,4.9c-0.9,0.9-2.9,1.4-5.9,1.7
		c3.4,0.5,5.6,1.1,6.5,1.9c0.9,0.8,1.4,2.5,1.4,5.2c0,3.5-0.9,5.8-2.6,6.9s-5.3,1.7-10.7,1.7H94.3v-8.1h2.9V164h-2.9V156.3z
		 M105.6,164v5.3h1.6c2.3,0,3.4-0.9,3.4-2.7c0-1.7-1.2-2.6-3.7-2.6H105.6z M105.6,172.6v5.9h1.4c2.8,0,4.2-1.1,4.2-3.2
		c0-1.8-1.4-2.7-4.2-2.7H105.6z"/>
	<path class="st1" d="M150.5,178.5v8.1H136v-8.1h3.1l-0.9-4.1h-6.5l-1,4.1h3.4v8.1h-12v-8.1h2.7l5.9-22.2h11l6.1,22.2H150.5z
		 M137.4,171.3l-2.4-9.3l-2.5,9.3H137.4z"/>
	<path class="st1" d="M183.6,156.3v7.7h-2.9v22.5h-9.1l-10-23.9v15.8h3.4v8.1h-12v-8.1h3V164h-3v-7.7H166l8.9,21.2V164h-3.4v-7.7
		H183.6z"/>
	<path class="st1" d="M209.3,156.3v12.1h-7.9l0.1-2.5c0-1.2-0.9-1.8-2.6-1.8c-2.3,0-3.5,2.6-3.5,7.8c0,4.2,1.1,6.3,3.3,6.3
		c1.8,0,2.7-1,2.7-3v-1h-2.7v-4.4h13.8v4.4h-3.2v12.3h-4l-1.7-2.5c-0.1,0.1-0.2,0.3-0.3,0.3c-1.5,1.8-3.9,2.7-7.2,2.7
		c-3.8,0-6.2-0.7-7.5-2.1c-1.2-1.4-1.8-4.3-1.8-8.6v-2v-6.5c0-4.6,0.6-7.8,1.9-9.5c1.3-1.7,3.6-2.5,7.1-2.5c3.1,0,5.1,0.7,6,2v-1.6
		H209.3z"/>
	<path class="st1" d="M242,178.5v8.1h-14.4v-8.1h3.1l-0.9-4.1h-6.5l-1,4.1h3.4v8.1h-12v-8.1h2.7l5.9-22.2h11l6.1,22.2H242z
		 M228.9,171.3l-2.4-9.3l-2.5,9.3H228.9z"/>
</g>
<g id="nelson">
	<path class="st1" d="M75.5,105.5v9.4h-3.6v27.5H60.8l-12.2-29.2v19.3h4.2v9.9H38v-9.9h3.6v-17.6H38v-9.4h16.1L65,131.3v-16.4h-4.2
		v-9.4H75.5z"/>
	<path class="st1" d="M100.2,130.6c0.2,1,0.4,2.3,0.4,3.8c0,5.6-3.4,8.4-10.1,8.4c-4.7,0-7.8-0.9-9.1-2.8c-1.4-1.9-2-6.1-2-12.6
		c0-5,0.8-8.3,2.3-10.1c1.5-1.8,4.4-2.7,8.5-2.7c4.2,0,7,0.9,8.5,2.8c1.5,1.8,2.3,5.2,2.3,10.2l-0.1,1.8H87.4v2.7l0.2,1.3
		c0.2,0.9,1.1,1.3,2.7,1.3c1.8,0,2.7-0.9,2.7-2.6v-0.9l0.1-0.6H100.2z M87.3,126.3H93v-2c0-1.6-0.9-2.4-2.8-2.4c-2,0-3,1-3,2.9
		C87.2,125.2,87.2,125.7,87.3,126.3z"/>
	<path class="st1" d="M115.6,134.6h3.1v7.8H105v-7.8h2.9v-21.8H105v-7.4h10.5V134.6z"/>
	<path class="st1" d="M141.2,114.9v10.6H135v-0.7c0-1.9-1.3-2.9-4-2.9c-2.1,0-3.1,0.5-3.1,1.6c0,0.9,0.9,1.6,2.8,2.1l4,1.2
		c5.2,1.6,7.8,4,7.8,7.3c0,5.8-2.5,8.6-7.6,8.6c-3.4,0-5.7-1-7.1-2.9v2.5h-6.2v-11.3h6.2v0.5c0,2.5,1.2,3.7,3.6,3.7
		c2.2,0,3.2-0.6,3.2-1.9c0-1.4-1.2-2.5-3.7-3.2l-2.6-0.8c-5-1.5-7.5-4-7.5-7.4c0-5,2.4-7.5,7.3-7.5c3.1,0,5.4,1,6.9,3v-2.7H141.2z"
		/>
	<path class="st1" d="M146.3,133.4v-8.9c0-4,0.7-6.6,2.2-8c1.4-1.3,4.4-2,8.8-2c4.4,0,7.3,0.7,8.7,2c1.5,1.4,2.2,4.1,2.2,8.2v8.3
		l-0.1,2.2c0,5-3.7,7.5-11,7.5C149.8,142.7,146.3,139.6,146.3,133.4z M160.5,129.9v-3.4l-0.1-1.2v-1.1c0-1.5-1.1-2.3-3.2-2.3
		c-2.2,0-3.4,1.6-3.4,4.8v3.5c0,3,1.1,4.4,3.2,4.4C159.4,134.7,160.5,133.1,160.5,129.9z"/>
	<path class="st1" d="M200,134.6v7.8h-12.9v-7.8h2.2v-7.9v-1l-0.1-1.2c0-1.8-0.8-2.7-2.4-2.7c-2.8,0-4.2,1.7-4.2,5v7.7h2.7v7.8
		h-12.9v-7.8h2.9v-12.3h-2.9v-7.4h10.2v3.4c1.9-2.5,4.5-3.7,7.8-3.7c4.4,0,6.5,1.9,6.5,5.7v2.1v12.3H200z"/>
</g>
</svg>
