<?xml version="1.0" encoding="utf-8"?>
<!-- Generator: Adobe Illustrator 22.0.0, SVG Export Plug-In . SVG Version: 6.00 Build 0)  -->
<svg version="1.1" id="Layer_1" xmlns="http://www.w3.org/2000/svg" xmlns:xlink="http://www.w3.org/1999/xlink" x="0px" y="0px"
	 viewBox="0 0 254 140.7" style="enable-background:new 0 0 254 140.7;" xml:space="preserve">
<style type="text/css">
	.st0{fill:#333333;}
</style>
<g id="lubanga">
	<path class="st0" d="M49.3,104v14H24.7v-8.1h3V95.4h-3v-7.7h14.4v7.7H36v14.4h5.8v-5.9h7.5V104z"/>
	<path class="st0" d="M77.5,87.7v7.7h-3v14.5v2.3l-0.4,2.3c-1,2.6-4.2,4-9.6,4c-6.8,0-10.2-2.2-10.2-6.6v-2.3V95.4h-2.9v-7.7h13.3
		v7.7h-2v10.2c0,2.8,0.9,4.2,2.6,4.2c1.9,0,2.9-1.5,2.9-4.4v-10h-1.9v-7.7H77.5z"/>
	<path class="st0" d="M80.4,87.7h11.3c5.6,0,9.3,0.5,11,1.5s2.6,3.2,2.6,6.4c0,2.4-0.5,4-1.4,4.9s-2.9,1.4-5.9,1.7
		c3.4,0.5,5.6,1.1,6.5,1.9c0.9,0.8,1.4,2.5,1.4,5.2c0,3.5-0.9,5.8-2.6,6.9s-5.3,1.7-10.7,1.7H80.4v-8.1h2.9V95.4h-2.9V87.7z
		 M91.7,95.4v5.3h1.6c2.3,0,3.4-0.9,3.4-2.7c0-1.7-1.2-2.6-3.7-2.6H91.7z M91.7,104v5.9h1.4c2.8,0,4.2-1.1,4.2-3.2
		c0-1.8-1.4-2.7-4.2-2.7H91.7z"/>
	<path class="st0" d="M136.6,109.9v8.1h-14.5v-8.1h3.1l-0.9-4.1h-6.5l-1,4.1h3.4v8.1h-12v-8.1h2.7l5.9-22.2h11l6.1,22.2H136.6z
		 M123.5,102.7l-2.4-9.3l-2.5,9.3H123.5z"/>
	<path class="st0" d="M169.7,87.7v7.7h-2.9v22.5h-9.1l-10-23.9v15.8h3.4v8.1h-12v-8.1h3V95.4h-3v-7.7h13l8.9,21.2V95.4h-3.4v-7.7
		H169.7z"/>
	<path class="st0" d="M195.4,87.7v12.1h-7.9l0.1-2.5c0-1.2-0.9-1.8-2.6-1.8c-2.3,0-3.5,2.6-3.5,7.8c0,4.2,1.1,6.3,3.3,6.3
		c1.8,0,2.7-1,2.7-3v-1h-2.7v-4.4h13.8v4.4h-3.2v12.3h-4l-1.7-2.5c-0.1,0.1-0.2,0.3-0.3,0.3c-1.5,1.8-3.9,2.7-7.2,2.7
		c-3.8,0-6.2-0.7-7.5-2.1c-1.2-1.4-1.8-4.3-1.8-8.6v-2v-6.5c0-4.6,0.6-7.8,1.9-9.5c1.3-1.7,3.6-2.5,7.1-2.5c3.1,0,5.1,0.7,6,2v-1.6
		h7.5V87.7z"/>
	<path class="st0" d="M228.1,109.9v8.1h-14.4v-8.1h3.1l-0.9-4.1h-6.5l-1,4.1h3.4v8.1h-12v-8.1h2.7l5.9-22.2h11l6.1,22.2H228.1z
		 M215,102.7l-2.4-9.3l-2.5,9.3H215z"/>
</g>
<g id="nelson">
	<path class="st0" d="M71.3,25.2v11.8h-4.5v34.6h-14L37.5,34.9v24.3h5.3v12.5H24.1V59.2h4.5V37.1h-4.5V25.2h20.3l13.7,32.5V37.1
		h-5.3V25.2H71.3z"/>
	<path class="st0" d="M102.4,56.8c0.3,1.3,0.5,2.9,0.5,4.8c0,7.1-4.3,10.6-12.7,10.6c-5.9,0-9.8-1.1-11.5-3.5
		c-1.8-2.4-2.5-7.7-2.5-15.9c0-6.3,1-10.5,2.9-12.7c1.9-2.3,5.5-3.4,10.7-3.4c5.3,0,8.8,1.1,10.7,3.5c1.9,2.3,2.9,6.5,2.9,12.8
		l-0.1,2.3h-17v3.4l0.3,1.6C86.8,61.5,88,62,90,62c2.3,0,3.4-1.1,3.4-3.3v-1.1l0.1-0.8H102.4z M86.2,51.4h7.2v-2.5c0-2-1.1-3-3.5-3
		c-2.5,0-3.8,1.3-3.8,3.7C86.1,50,86.1,50.7,86.2,51.4z"/>
	<path class="st0" d="M121.8,61.9h3.9v9.8h-17.3v-9.8h3.7V34.4h-3.7v-9.3h13.2v36.8H121.8z"/>
	<path class="st0" d="M154.1,37.1v13.3h-7.8v-0.9c0-2.4-1.6-3.7-5-3.7c-2.6,0-3.9,0.6-3.9,2c0,1.1,1.1,2,3.5,2.6l5,1.5
		c6.5,2,9.8,5,9.8,9.2c0,7.3-3.1,10.8-9.6,10.8c-4.3,0-7.2-1.3-8.9-3.7v3.1h-7.8V57.3h7.8V58c0,3.1,1.5,4.7,4.5,4.7
		c2.8,0,4-0.8,4-2.4c0-1.8-1.5-3.1-4.7-4l-3.3-1c-6.3-1.9-9.4-5-9.4-9.3c0-6.3,3-9.4,9.2-9.4c3.9,0,6.8,1.3,8.7,3.8v-3.4h7.8V37.1z"
		/>
	<path class="st0" d="M160.5,60.3V49.1c0-5,0.9-8.3,2.8-10.1c1.8-1.6,5.5-2.5,11.1-2.5c5.5,0,9.2,0.9,11,2.5
		c1.9,1.8,2.8,5.2,2.8,10.3v10.5l-0.1,2.8c0,6.3-4.7,9.4-13.9,9.4C164.9,72.1,160.5,68.2,160.5,60.3z M178.4,55.9v-4.3l-0.1-1.5
		v-1.4c0-1.9-1.4-2.9-4-2.9c-2.8,0-4.3,2-4.3,6v4.4c0,3.8,1.4,5.5,4,5.5C177,62,178.4,60,178.4,55.9z"/>
	<path class="st0" d="M228.1,61.9v9.8h-16.2v-9.8h2.8v-9.9v-1.3l-0.1-1.5c0-2.3-1-3.4-3-3.4c-3.5,0-5.3,2.1-5.3,6.3v9.7h3.4v9.8
		h-16.2v-9.8h3.7V46.2h-3.7v-9.3h12.8v4.3c2.4-3.1,5.7-4.7,9.8-4.7c5.5,0,8.2,2.4,8.2,7.2v2.6v15.5H228.1z"/>
</g>
</svg>
