<?xml version="1.0" encoding="utf-8"?>
<!-- Generator: Adobe Illustrator 22.0.0, SVG Export Plug-In . SVG Version: 6.00 Build 0)  -->
<svg version="1.1" id="symbol" xmlns="http://www.w3.org/2000/svg" xmlns:xlink="http://www.w3.org/1999/xlink" x="0px" y="0px"
	 viewBox="0 0 300 300" style="enable-background:new 0 0 300 300;" xml:space="preserve">
<style type="text/css">
	.st0{fill:#64B900;}
</style>
<path id="leaf" class="st0" d="M190.3,98.8c0.9-0.5,1.8-1,2.8-1.5c1.2-0.6,2.4-1.2,3.7-1.8c1.3-0.6,2.6-1.2,3.9-1.8
	c5.4-2.3,11.3-4.3,17.3-6c11.9-3.4,24.1-5.7,33.3-7.1c3.9-0.6,7.2-1,9.8-1.3c-2.1,0.3-4.6,0.7-7.3,1.2c-9.1,1.5-21.3,4.1-33.1,7.8
	c-5.9,1.9-11.8,4-17.1,6.4c-1.3,0.6-2.6,1.2-3.9,1.8c-1.3,0.6-2.5,1.2-3.7,1.9c-1.2,0.6-2.3,1.3-3.4,1.9c-1.1,0.6-2.1,1.3-3.1,2
	c-1,0.6-1.9,1.3-2.8,2c-0.9,0.7-1.7,1.2-2.5,1.9c-0.4,0.3-0.7,0.6-1.1,1c0.7-2.4,1.3-4.8,2-7.2c4.3-14.7,9.5-28.1,15-39.1
	c1.3-2.8,2.8-5.3,4.1-7.8c1.3-2.5,2.7-4.7,4.1-6.8c2.6-4.3,5.2-7.7,7.4-10.6c2.1-2.9,4.1-4.9,5.3-6.4c1.3-1.5,1.9-2.2,1.9-2.2
	s-0.7,0.7-2,2.1c-1.3,1.4-3.4,3.3-5.7,6.1c-2.3,2.8-5.1,6.1-8,10.3c-1.5,2-3,4.2-4.5,6.6c-1.5,2.4-3.2,4.9-4.6,7.6
	C192,70.5,186,83.8,180.9,98.5c-2.6,7.3-5,15-7.1,22.9c-2.2,7.9-4.1,16-5.9,24.1c-2.2,10.1-3.9,20.2-5.5,30.1
	c-0.8-1.7-1.7-3.4-2.7-5.2c-1-1.9-2.1-3.8-3.4-5.8c-1.2-2-2.5-4-4-6.1c-1.4-2.1-2.9-4.2-4.5-6.3c-1.6-2.1-3.2-4.3-5-6.4
	c-1.7-2.2-3.6-4.3-5.5-6.5c-7.6-8.6-16.2-17.3-25.3-25.4C94,97.7,74.6,83.2,59.6,72.9c-4.5-3.1-8.5-5.8-12-8.1
	c4.3,2.6,9.9,6.1,16.3,10.4c15.1,10,34.8,24.1,53.2,40c9.2,8,18,16.4,25.7,24.9c1.9,2.1,3.8,4.2,5.6,6.4c1.8,2.1,3.5,4.2,5.1,6.3
	c1.3,1.7,2.5,3.3,3.7,5c35.9-99.3-131.8-107-131.8-107s8,11.6,15.8,32.5c17.1,46,33.5,123.9,109.7,85.3c1,1.7,2,3.5,2.7,5.1
	c0.9,1.8,1.8,3.5,2.4,5.2c0.7,1.7,1.4,3.2,1.9,4.6c0.5,1.5,1,2.8,1.4,4c0.4,1,0.6,1.9,0.9,2.8c-2.2,16.7-3.5,32.5-4.3,45.9
	c-0.8,12.5-1.1,22.9-1.2,30.2c-0.1,7.3,0,11.6,0,11.6l13.5-0.6c0,0-0.3-4-0.5-11.1c-0.3-7.1-0.5-17.4-0.3-29.6
	c0.2-24.6,1.9-57.4,7.1-89.8c1.3-8.1,2.8-16.1,4.6-24c0.6-2.8,1.3-5.5,1.9-8.2c0-0.1,0.1-0.1,0.1-0.1c0.5-0.5,1-1.4,1.9-2.3
	c0.5-0.5,0.9-1,1.5-1.6c0.6-0.5,1.2-1.1,1.9-1.7c0.7-0.6,1.4-1.2,2.2-1.9c0.7-0.6,1.5-1.2,2.4-1.8c27.5,34.6,51.5,1.8,69.2-16
	c8-8.1,14.2-11.8,14.2-11.8S194.4,44.5,190.3,98.8z M38.2,59.3c0,0,0.6,0.3,1.6,1c0.6,0.4,1.3,0.9,2,1.4
	C39.6,60.1,38.2,59.3,38.2,59.3z M265.6,78.7c0.6-0.1,1-0.1,1-0.1s-0.8,0.1-2.2,0.3C264.8,78.9,265.2,78.8,265.6,78.7z"/>
</svg>
